<svg width="128" height="128" viewBox="0 0 128 128" fill="none" xmlns="http://www.w3.org/2000/svg">
<path d="M116.356 94.389L64.5085 124.323L12.6609 94.389V34.5205L64.5085 4.58626L116.356 34.5205L116.356 94.389Z" fill="white" stroke="black"/>
<path d="M116.306 94.1653L64.5085 124.148L12.7114 94.1653L64.5085 64.1824L116.306 94.1653Z" stroke="black" stroke-width="1.26687"/>
<path d="M64.5085 124.148V4.77974" stroke="black" stroke-width="0.903364"/>
<path d="M12.6609 94.3889V81.4812L35.8469 38.538L30.3361 34.2998L12.6609 44.4651V34.5205L64.5084 4.77975V14.647L37.554 30.1488L64.5084 50.6772V62.6375L40.2351 43.5121L12.6609 94.3889Z" fill="black"/>
<path d="M110.149 90.6015L110.149 65.4195L64.5084 39.1411V29.8212L110.149 56.0473V30.8655L116.306 34.3843V94.1653L110.149 90.6015Z" fill="black"/>
</svg>
