<svg width="128" height="128" viewBox="0 0 128 128" fill="none" xmlns="http://www.w3.org/2000/svg">
<path d="M116.356 94.3887L64.5085 124.323L12.6609 94.3887V34.5202L64.5085 4.58597L116.356 34.5202L116.356 94.3887Z" fill="white" fill-opacity="0.15" stroke="black" stroke-width="4"/>
<path d="M116.308 34.384L64.5113 64.1821L12.7142 34.384L64.5113 4.58595L116.308 34.384Z" stroke="black" stroke-width="4"/>
<path d="M116.306 94.165L64.5085 124.148L12.7114 94.165L64.5085 64.1821L116.306 94.165Z" stroke="black" stroke-width="4"/>
<path d="M64.5085 124.148V4.77931" stroke="black" stroke-width="4"/>
<path d="M12.6609 94.3885V81.4807L35.8469 38.5375L30.3361 34.2994L12.6609 44.4646V34.52L64.5084 4.77931V14.6465L37.554 30.1483L64.5084 50.6767V62.6371L40.2351 43.5116L12.6609 94.3885Z" fill="black"/>
<path d="M110.149 90.6013L110.149 65.4193L64.5084 39.1409V29.8211L110.149 56.0471V30.8653L116.306 34.3841V94.1651L110.149 90.6013Z" fill="black"/>
</svg>
